<svg width="18" height="19" viewBox="0 0 18 19" fill="none" xmlns="http://www.w3.org/2000/svg">
<path d="M13.8268 0.552406L16.1119 0.671547L16.6071 0.696938L16.5846 1.19303L15.9283 15.9753V15.9762L15.8795 17.0036L15.8571 17.4801H15.3805C14.539 17.4801 13.3883 17.5272 12.526 17.5514L12.1852 17.5612L12.0514 17.2467C10.9503 14.6509 9.91827 12.1037 8.8219 9.54264C8.17692 8.10495 7.63712 6.71608 6.94202 5.37272L6.79846 5.13444C6.46102 4.64129 6.11347 4.55593 5.89514 4.5944C5.62037 4.64292 5.24391 4.93323 5.05139 5.64518C4.47395 9.29363 4.18482 12.9884 3.84436 16.6911L3.79944 17.1803L3.3092 17.1442L1.04846 16.9772L0.542603 16.9391L0.587524 16.4342C0.926686 12.603 1.19623 8.73018 1.85706 4.88346L1.85999 4.86784L1.86292 4.85319C2.24135 3.24677 3.3807 2.02251 4.75549 1.54069C6.14505 1.05378 7.74844 1.33772 8.97913 2.68424C9.44469 3.16144 9.76971 3.67939 10.0387 4.2067L10.2926 4.736L10.2936 4.73893C11.1983 6.74733 12.0618 8.75521 12.9049 10.7614L13.3004 1.03092L13.3209 0.526039L13.8268 0.552406Z" fill="white" stroke="white"/>
</svg>
