<svg width="42" height="40" viewBox="0 0 42 40" fill="none" xmlns="http://www.w3.org/2000/svg">
<rect width="42" height="40" rx="6" fill="url(#paint0_linear_2_33)"/>
<path d="M25.7412 11.501L28.0264 11.6201L28.5215 11.6455L28.499 12.1416L27.8428 26.9238V26.9248L27.7939 27.9521L27.7715 28.4287H27.2949C26.4534 28.4287 25.3027 28.4758 24.4404 28.5L24.0996 28.5098L23.9658 28.1953C22.8647 25.5995 21.8327 23.0523 20.7363 20.4912C20.0913 19.0535 19.5516 17.6647 18.8564 16.3213L18.7129 16.083C18.3754 15.5899 18.0279 15.5045 17.8096 15.543C17.5348 15.5915 17.1583 15.8818 16.9658 16.5938C16.3884 20.2422 16.0993 23.937 15.7588 27.6396L15.7139 28.1289L15.2236 28.0928L12.9629 27.9258L12.457 27.8877L12.502 27.3828C12.8411 23.5515 13.1107 19.6788 13.7715 15.832L13.7744 15.8164L13.7773 15.8018C14.1558 14.1953 15.2951 12.9711 16.6699 12.4893C18.0595 12.0024 19.6629 12.2863 20.8936 13.6328C21.3591 14.11 21.6841 14.628 21.9531 15.1553L22.207 15.6846L22.208 15.6875C23.1127 17.6959 23.9762 19.7038 24.8193 21.71L25.2148 11.9795L25.2354 11.4746L25.7412 11.501Z" fill="white" stroke="white"/>
<defs>
<linearGradient id="paint0_linear_2_33" x1="1.15564e-06" y1="50.5" x2="58" y2="-1.26927e-06" gradientUnits="userSpaceOnUse">
<stop stop-color="#5146EE"/>
<stop offset="1" stop-color="#4638D3"/>
</linearGradient>
</defs>
</svg>
